<?xml version="1.0" encoding="utf-8"?>
<!-- Generator: Adobe Illustrator 22.1.0, SVG Export Plug-In . SVG Version: 6.00 Build 0)  -->
<svg version="1.1" id="Layer_1" xmlns="http://www.w3.org/2000/svg" xmlns:xlink="http://www.w3.org/1999/xlink" x="0px" y="0px"
	 viewBox="0 0 580 386" style="enable-background:new 0 0 580 386;" xml:space="preserve">
<style type="text/css">
	.st0{fill:#0082FF;}
	.st1{fill:#00D4FF;}
	.st2{fill:#97EEFE;}
	.st3{fill:#FFFFFF;}
	.st4{fill:#00B1DE;}
	.st5{fill:none;stroke:#231F20;stroke-width:6.4015;stroke-linecap:round;stroke-linejoin:round;stroke-miterlimit:10;}
	.st6{fill:#231F20;}
	.st7{fill:#FF6C52;stroke:#342C67;stroke-width:6.4015;stroke-linecap:round;stroke-linejoin:round;stroke-miterlimit:10;}
	.st8{fill:#E9F3FF;stroke:#342C67;stroke-width:6.4015;stroke-linecap:round;stroke-linejoin:round;stroke-miterlimit:10;}
	.st9{fill:#ABBED4;stroke:#342C67;stroke-width:6.4015;stroke-linecap:round;stroke-linejoin:round;stroke-miterlimit:10;}
	.st10{fill:none;stroke:#342C67;stroke-width:6.4015;stroke-linecap:round;stroke-linejoin:round;stroke-miterlimit:10;}
	.st11{fill:#FFDC69;stroke:#342C67;stroke-width:6.4015;stroke-linecap:round;stroke-linejoin:round;stroke-miterlimit:10;}
	.st12{fill:#00CBE7;stroke:#342C67;stroke-width:6.4015;stroke-linecap:round;stroke-linejoin:round;stroke-miterlimit:10;}
	.st13{fill:#00B3D9;stroke:#342C67;stroke-width:6.4015;stroke-linecap:round;stroke-linejoin:round;stroke-miterlimit:10;}
	.st14{fill:#F6FFFF;}
	.st15{fill:#FFFFFF;stroke:#231F20;stroke-width:6.4015;stroke-linecap:round;stroke-linejoin:round;stroke-miterlimit:10;}
	.st16{fill:#342C67;}
	.st17{fill:#FFFFFF;stroke:#342C67;stroke-width:6.4015;stroke-linecap:round;stroke-linejoin:round;stroke-miterlimit:10;}
	.st18{fill:url(#SVGID_1_);}
	.st19{fill:#FF6C52;stroke:#342C67;stroke-width:6.401;stroke-linecap:round;stroke-linejoin:round;stroke-miterlimit:10;}
	.st20{fill:#FFDC69;stroke:#342C67;stroke-width:6.401;stroke-linecap:round;stroke-linejoin:round;stroke-miterlimit:10;}
	.st21{fill:#E9F3FF;stroke:#342C67;stroke-width:6.401;stroke-linecap:round;stroke-linejoin:round;stroke-miterlimit:10;}
	.st22{fill:#00B3D9;stroke:#342C67;stroke-width:6.401;stroke-linecap:round;stroke-linejoin:round;stroke-miterlimit:10;}
	.st23{fill:none;stroke:#342C67;stroke-width:6.401;stroke-linecap:round;stroke-linejoin:round;stroke-miterlimit:10;}
</style>
<g>
	<path class="st11" d="M233.5,95.8v144.5c-4.9,0-9.1,2-12.3,5c-0.4,0.4-0.9,0.9-1.1,1.3c-0.4,0.4-0.8,0.9-1,1.3
		c-0.3,0.4-0.4,0.8-0.6,1.2c-0.4,0.6-0.7,1.2-0.9,1.8c0,0-0.1,0-0.1,0.1c-0.2,0.5-0.3,1-0.5,1.5c-0.4,1.1-0.7,2.2-0.7,3.4
		c-0.1,0.3-0.1,0.6-0.1,0.9V118.1C216.2,107.4,223.6,98.3,233.5,95.8z"/>
	<path class="st10" d="M220.1,246.6c-0.6,0.8-1.2,1.6-1.6,2.5c0.2-0.4,0.3-0.8,0.6-1.2C219.4,247.5,219.7,247,220.1,246.6z"/>
	<path class="st7" d="M363.8,100.5v139.8H233.5V95.8c1.8-0.4,3.8-0.7,5.7-0.7h119.2C361.4,95.1,363.8,97.5,363.8,100.5z"/>
	<path class="st8" d="M363.8,240.3v29.4c0,3-2.5,5.4-5.4,5.4h-77.2v-17.3h-27.6V275h-19c-9.3,0-17.6-6.7-18.4-16v-2.1
		c0-0.3,0-0.7,0.1-0.9c0.1-1.2,0.3-2.3,0.7-3.4c0.2-0.5,0.3-1,0.5-1.5c0-0.1,0.1-0.1,0.1-0.1c0.3-0.6,0.5-1.2,0.9-1.8
		c0.4-0.9,1-1.7,1.6-2.5c0.3-0.4,0.7-0.9,1.1-1.3c3.2-3.1,7.4-5,12.3-5H363.8z"/>
	<path class="st10" d="M220.1,246.6c-0.6,0.8-1.2,1.6-1.6,2.5c0.2-0.4,0.3-0.8,0.6-1.2C219.4,247.5,219.7,247,220.1,246.6z"/>
	<line class="st10" x1="253.6" y1="257.7" x2="235.9" y2="257.7"/>
	<line class="st10" x1="349.7" y1="257.7" x2="281.1" y2="257.7"/>
	<polygon class="st12" points="281.2,257.7 281.2,290.9 267.3,284.6 253.6,290.9 253.6,257.7 	"/>
	<rect x="255.9" y="126" class="st11" width="84.1" height="33.1"/>
	<line class="st10" x1="255.9" y1="177.4" x2="319.6" y2="177.4"/>
	<line class="st10" x1="255.9" y1="193" x2="302.5" y2="193"/>
</g>
</svg>
